<svg viewBox="0 0 59 59" fill="none" xmlns="http://www.w3.org/2000/svg">
<g clip-path="url(#clip0_328_117)">
<path d="M58.9875 30.071C58.7253 31.2236 58.2995 32.292 57.3889 33.1008C55.3103 34.9468 52.4968 34.8603 50.4339 32.8869C49.907 32.3833 49.3994 31.8581 48.8834 31.3425C42.5827 25.0462 36.2808 18.7498 29.9837 12.451C29.843 12.3104 29.7335 12.1398 29.3967 11.891C29.3654 11.8682 29.3209 11.8778 29.3029 11.9114C29.2055 12.0977 29.1297 12.3032 28.9877 12.445C22.2456 19.1957 15.4914 25.9343 8.7493 32.6862C7.44417 33.9938 5.93697 34.6391 4.07251 34.3411C0.472289 33.7642 -1.25023 29.3259 1.02682 26.4787C1.24213 26.2095 1.46948 25.9475 1.71246 25.7036C9.7104 17.7102 17.7095 9.7193 25.7051 1.72355C27.2339 0.194832 29.0214 -0.434924 31.1 0.317419C31.8482 0.589031 32.5819 1.07697 33.1497 1.64063C41.2391 9.67843 49.2959 17.7487 57.3661 25.8033C58.249 26.6843 58.7506 27.7443 58.9984 28.9473L58.9863 30.0686L58.9875 30.071Z" fill="#BB2649"/>
<path d="M6.68907 58.8785C5.82179 58.6358 4.99181 58.3293 4.26166 57.7452C2.15181 56.0579 1.77892 52.8959 3.57481 50.8888C4.59606 49.7483 5.74842 48.7231 6.86108 47.6667C12.6662 42.1563 18.4761 36.6508 24.2884 31.1488C26.2082 29.3317 28.626 28.9759 30.9066 30.197C31.3565 30.4373 31.7703 30.7739 32.1432 31.126C38.8781 37.4969 45.6082 43.8726 52.3299 50.2566C54.2196 52.051 54.5769 54.3825 53.2826 56.5133C52.4947 57.8101 51.2846 58.5456 49.8099 58.8593C49.7786 58.8653 49.7485 58.8737 49.7184 58.8809C49.289 58.9206 48.8692 58.9603 48.4398 58.9999C46.6126 58.8281 45.3183 57.7885 44.0685 56.5939C38.9358 51.6892 33.7731 46.8158 28.6212 41.9316C28.5117 41.8282 28.395 41.7321 28.2627 41.6179C28.2386 41.5963 28.2002 41.5975 28.1761 41.6191C28.0029 41.7802 27.8477 41.9232 27.6949 42.0686C22.5995 46.9011 17.4933 51.7229 12.4172 56.5746C11.2287 57.7104 9.99819 58.7103 8.31175 58.9807C7.85586 58.9518 7.14496 58.9074 6.68907 58.8797V58.8785Z" fill="#BB2649"/>
</g>
<defs>
<clipPath id="clip0_328_117">
<rect width="59" height="59" fill="white"/>
</clipPath>
</defs>
</svg>
