<svg viewBox="0 0 83 82" fill="none" xmlns="http://www.w3.org/2000/svg">
<path d="M41.2009 81.8002C63.7894 81.8002 82.101 63.4886 82.101 40.9001C82.101 18.3116 63.7894 0 41.2009 0C18.6124 0 0.300781 18.3116 0.300781 40.9001C0.300781 63.4886 18.6124 81.8002 41.2009 81.8002Z" fill="#BE264C"/>
<path d="M41.1982 19.8131C48.0452 19.8131 48.8935 19.8131 51.6202 19.9343C54.1045 20.0555 55.4981 20.4796 56.407 20.8432C57.6189 21.3279 58.4672 21.8733 59.376 22.7821C60.2849 23.691 60.8303 24.5393 61.315 25.7512C61.6786 26.6601 62.1027 27.9931 62.2239 30.538C62.3451 33.2647 62.3451 34.0524 62.3451 40.96C62.3451 47.8676 62.3451 48.6553 62.2239 51.3819C62.1027 53.8662 61.6786 55.2599 61.315 56.1688C60.8303 57.3806 60.2849 58.2289 59.376 59.1378C58.4672 60.0467 57.6189 60.592 56.407 61.0768C55.4981 61.4403 54.1651 61.8645 51.6202 61.9857C48.8935 62.1069 48.1058 62.1069 41.1982 62.1069C34.3512 62.1069 33.5029 62.1069 30.7763 61.9857C28.292 61.8645 26.8983 61.4403 25.9894 61.0768C24.7776 60.592 23.9293 60.0467 23.0204 59.1378C22.1115 58.2289 21.5662 57.3806 21.0814 56.1688C20.7179 55.2599 20.2937 53.9268 20.1725 51.3819C20.0513 48.6553 20.0513 47.8676 20.0513 40.96C20.0513 34.0524 20.0513 33.2647 20.1725 30.538C20.2937 28.0537 20.7179 26.6601 21.0814 25.7512C21.5662 24.5393 22.1115 23.691 23.0204 22.7821C23.9293 21.8733 24.7776 21.3279 25.9894 20.8432C26.8983 20.4796 28.2314 20.0555 30.7763 19.9343C33.5029 19.8131 34.3512 19.8131 41.1982 19.8131ZM41.1982 15.1475C34.23 15.1475 33.3212 15.1475 30.5945 15.3292C27.8678 15.4504 25.9894 15.8746 24.3534 16.5411C22.6568 17.2076 21.2026 18.0559 19.809 19.5101C18.3547 20.9644 17.5064 22.358 16.8399 24.0546C16.1734 25.6906 15.7493 27.569 15.6281 30.2957C15.5069 33.0223 15.4463 33.9312 15.4463 40.8994C15.4463 47.8676 15.4463 48.7764 15.6281 51.5031C15.7493 54.2298 16.1734 56.1082 16.8399 57.7442C17.5064 59.4408 18.3547 60.895 19.809 62.2886C21.2632 63.7429 22.6568 64.5912 24.3534 65.2577C25.9894 65.9242 27.8678 66.3483 30.5945 66.4695C33.3212 66.5907 34.23 66.6513 41.1982 66.6513C48.1664 66.6513 49.0753 66.6513 51.8019 66.4695C54.5286 66.3483 56.407 65.9242 58.043 65.2577C59.7396 64.5912 61.1938 63.7429 62.5875 62.2886C64.0417 60.8344 64.89 59.4408 65.5565 57.7442C66.223 56.1082 66.6472 54.2298 66.7684 51.5031C66.8895 48.7764 66.9501 47.8676 66.9501 40.8994C66.9501 33.9312 66.9501 33.0223 66.7684 30.2957C66.6472 27.569 66.223 25.6906 65.5565 24.0546C64.89 22.358 64.0417 20.9038 62.5875 19.5101C61.1332 18.0559 59.7396 17.2076 58.043 16.5411C56.407 15.8746 54.5286 15.4504 51.8019 15.3292C49.0753 15.1475 48.1664 15.1475 41.1982 15.1475Z" fill="white"/>
<path d="M41.1995 27.6904C33.8677 27.6904 27.9902 33.6285 27.9902 40.8997C27.9902 48.1708 33.9283 54.1089 41.1995 54.1089C48.5312 54.1089 54.4087 48.1708 54.4087 40.8997C54.4087 33.6285 48.5312 27.6904 41.1995 27.6904ZM41.1995 49.5038C36.4732 49.5038 32.5953 45.6865 32.5953 40.8997C32.5953 36.1128 36.4126 32.2955 41.1995 32.2955C45.9257 32.2955 49.8036 36.1128 49.8036 40.8997C49.8036 45.6865 45.9257 49.5038 41.1995 49.5038Z" fill="white"/>
<path d="M54.9525 30.2351C56.6592 30.2351 58.0428 28.8516 58.0428 27.1449C58.0428 25.4382 56.6592 24.0547 54.9525 24.0547C53.2458 24.0547 51.8623 25.4382 51.8623 27.1449C51.8623 28.8516 53.2458 30.2351 54.9525 30.2351Z" fill="white"/>
</svg>
