<svg viewBox="0 0 43 43" fill="none" xmlns="http://www.w3.org/2000/svg">
<path d="M33.3527 43H9.64727C4.31634 43 0 38.6837 0 33.3527V9.64727C0 4.31634 4.31634 0 9.64727 0H33.3527C38.6837 0 43 4.31634 43 9.64727V33.3527C43 38.6837 38.6837 43 33.3527 43Z" fill="url(#paint0_linear_481_1146)"/>
<path d="M32.2095 16.93L34.0839 8.86482C34.0839 8.84763 34.0925 8.83043 34.0925 8.81323L32.2095 16.93Z" fill="#1D1D1B"/>
<path d="M12.2869 34.6941C11.8398 34.3587 11.7538 33.7225 12.0977 33.2753L15.6918 28.5721C16.0271 28.125 16.6634 28.039 17.1105 28.3829C17.5576 28.7183 17.6436 29.3545 17.2997 29.8016L13.7056 34.5049C13.3617 34.9434 12.7254 35.0294 12.2869 34.6941Z" fill="#1D1D1B"/>
<path d="M18.8904 36.0096C18.4433 35.6743 18.3573 35.038 18.7012 34.5909L22.2953 29.8876C22.6306 29.4405 23.2669 29.3545 23.714 29.6985C24.1611 30.0338 24.2471 30.6701 23.9032 31.1172L20.3091 35.8204C19.9738 36.2589 19.3375 36.3449 18.8904 36.0096Z" fill="#1D1D1B"/>
<path d="M9.30347 28.6753C8.85636 28.3399 8.77038 27.7037 9.11431 27.2565L12.7084 22.5533C13.0437 22.1062 13.68 22.0202 14.1271 22.3641C14.5742 22.6995 14.6602 23.3357 14.3163 23.7828L10.7222 28.4861C10.3783 28.9246 9.74198 29.0106 9.30347 28.6753Z" fill="#1D1D1B"/>
<path d="M32.5617 6.25964L25.6315 10.0257L17.5491 14.3936C17.0848 14.643 17.0332 15.2878 17.4545 15.606L18.5809 16.4658C18.5895 16.4744 18.5981 16.483 18.6067 16.483C18.5035 16.6034 18.4089 16.7323 18.3057 16.8613C17.6093 17.7727 17.0848 18.7013 16.7322 19.6558C16.3711 20.6102 16.1905 21.5474 16.1819 22.4588C16.1733 23.3702 16.3453 24.2042 16.6806 24.9781C17.0332 25.7519 17.5491 26.3968 18.2369 26.9213C18.9248 27.4458 19.6814 27.7725 20.5069 27.9101C21.3323 28.0477 22.1835 27.9875 23.052 27.7381C23.9204 27.4802 24.7716 27.0589 25.6057 26.4742C26.4397 25.8809 27.2049 25.1243 27.91 24.2042C28.0132 24.0753 28.0992 23.9463 28.1937 23.8173L29.3459 24.7029C29.7586 25.0211 30.3691 24.8061 30.4895 24.2902L32.2005 16.9387L34.0836 8.82192L34.3587 7.63536C34.6081 6.59497 33.5075 5.75234 32.5617 6.25964ZM27.7638 19.1055C27.7552 19.7159 27.6177 20.3436 27.3683 20.9885C27.1104 21.642 26.7406 22.2782 26.2505 22.9231C25.7604 23.5594 25.2359 24.0839 24.677 24.4966C24.1182 24.9093 23.5421 25.2016 22.966 25.3822C22.3813 25.5542 21.8224 25.6058 21.2893 25.537C20.7476 25.4596 20.2489 25.2532 19.8018 24.9093C19.3547 24.5654 19.0108 24.1355 18.7872 23.6282C18.5637 23.1209 18.4691 22.562 18.4863 21.9515C18.5121 21.341 18.6411 20.7047 18.8904 20.0513C19.1312 19.3978 19.4923 18.7615 19.9738 18.1339C20.4639 17.489 20.9884 16.9731 21.5559 16.569C22.1148 16.1649 22.6908 15.8725 23.2755 15.6919C23.3529 15.6662 23.4389 15.649 23.5249 15.6232C24.0236 15.5028 24.5051 15.4684 24.9694 15.5458C25.5197 15.6232 26.0184 15.8381 26.4741 16.1821C26.9212 16.526 27.2565 16.9473 27.4715 17.4546C27.6607 17.8845 27.7552 18.3574 27.7724 18.8647C27.7638 18.9421 27.7638 19.0195 27.7638 19.1055ZM29.6469 16.1133C29.6383 16.1477 29.6297 16.1735 29.6125 16.2078C29.5953 16.1649 29.5781 16.1219 29.5609 16.0789C29.2169 15.3222 28.701 14.6774 28.0132 14.1529C27.3167 13.6198 26.5515 13.293 25.726 13.1641C25.6401 13.1555 25.5455 13.1383 25.4595 13.1297C25.5025 13.0867 25.5541 13.0523 25.6057 13.0179L27.4801 11.9603L29.7586 10.6792C30.3175 10.3696 30.971 10.8683 30.8162 11.4874L30.0166 14.6344L29.6469 16.1133Z" fill="#1D1D1B"/>
<path d="M33.3527 43H9.64727C4.31634 43 0 38.6837 0 33.3527V9.64727C0 4.31634 4.31634 0 9.64727 0H33.3527C38.6837 0 43 4.31634 43 9.64727V33.3527C43 38.6837 38.6837 43 33.3527 43Z" fill="url(#paint1_linear_481_1146)"/>
<path d="M32.2095 16.93L34.0839 8.86482C34.0839 8.84763 34.0925 8.83043 34.0925 8.81323L32.2095 16.93Z" fill="#1D1D1B"/>
<path d="M12.2869 34.6941C11.8398 34.3587 11.7538 33.7225 12.0977 33.2753L15.6918 28.5721C16.0271 28.125 16.6634 28.039 17.1105 28.3829C17.5576 28.7183 17.6436 29.3545 17.2997 29.8016L13.7056 34.5049C13.3617 34.9434 12.7254 35.0294 12.2869 34.6941Z" fill="#1D1D1B"/>
<path d="M18.8904 36.0096C18.4433 35.6743 18.3573 35.038 18.7012 34.5909L22.2953 29.8876C22.6306 29.4405 23.2669 29.3545 23.714 29.6985C24.1611 30.0338 24.2471 30.6701 23.9032 31.1172L20.3091 35.8204C19.9738 36.2589 19.3375 36.3449 18.8904 36.0096Z" fill="#1D1D1B"/>
<path d="M9.30347 28.6753C8.85636 28.3399 8.77038 27.7037 9.11431 27.2565L12.7084 22.5533C13.0437 22.1062 13.68 22.0202 14.1271 22.3641C14.5742 22.6995 14.6602 23.3357 14.3163 23.7828L10.7222 28.4861C10.3783 28.9246 9.74198 29.0106 9.30347 28.6753Z" fill="#1D1D1B"/>
<path d="M32.5617 6.25964L25.6315 10.0257L17.5491 14.3936C17.0848 14.643 17.0332 15.2878 17.4545 15.606L18.5809 16.4658C18.5895 16.4744 18.5981 16.483 18.6067 16.483C18.5035 16.6034 18.4089 16.7323 18.3057 16.8613C17.6093 17.7727 17.0848 18.7013 16.7322 19.6558C16.3711 20.6102 16.1905 21.5474 16.1819 22.4588C16.1733 23.3702 16.3453 24.2042 16.6806 24.9781C17.0332 25.7519 17.5491 26.3968 18.2369 26.9213C18.9248 27.4458 19.6814 27.7725 20.5069 27.9101C21.3323 28.0477 22.1835 27.9875 23.052 27.7381C23.9204 27.4802 24.7716 27.0589 25.6057 26.4742C26.4397 25.8809 27.2049 25.1243 27.91 24.2042C28.0132 24.0753 28.0992 23.9463 28.1937 23.8173L29.3459 24.7029C29.7586 25.0211 30.3691 24.8061 30.4895 24.2902L32.2005 16.9387L34.0836 8.82192L34.3587 7.63536C34.6081 6.59497 33.5075 5.75234 32.5617 6.25964ZM27.7638 19.1055C27.7552 19.7159 27.6177 20.3436 27.3683 20.9885C27.1104 21.642 26.7406 22.2782 26.2505 22.9231C25.7604 23.5594 25.2359 24.0839 24.677 24.4966C24.1182 24.9093 23.5421 25.2016 22.966 25.3822C22.3813 25.5542 21.8224 25.6058 21.2893 25.537C20.7476 25.4596 20.2489 25.2532 19.8018 24.9093C19.3547 24.5654 19.0108 24.1355 18.7872 23.6282C18.5637 23.1209 18.4691 22.562 18.4863 21.9515C18.5121 21.341 18.6411 20.7047 18.8904 20.0513C19.1312 19.3978 19.4923 18.7615 19.9738 18.1339C20.4639 17.489 20.9884 16.9731 21.5559 16.569C22.1148 16.1649 22.6908 15.8725 23.2755 15.6919C23.3529 15.6662 23.4389 15.649 23.5249 15.6232C24.0236 15.5028 24.5051 15.4684 24.9694 15.5458C25.5197 15.6232 26.0184 15.8381 26.4741 16.1821C26.9212 16.526 27.2565 16.9473 27.4715 17.4546C27.6607 17.8845 27.7552 18.3574 27.7724 18.8647C27.7638 18.9421 27.7638 19.0195 27.7638 19.1055ZM29.6469 16.1133C29.6383 16.1477 29.6297 16.1735 29.6125 16.2078C29.5953 16.1649 29.5781 16.1219 29.5609 16.0789C29.2169 15.3222 28.701 14.6774 28.0132 14.1529C27.3167 13.6198 26.5515 13.293 25.726 13.1641C25.6401 13.1555 25.5455 13.1383 25.4595 13.1297C25.5025 13.0867 25.5541 13.0523 25.6057 13.0179L27.4801 11.9603L29.7586 10.6792C30.3175 10.3696 30.971 10.8683 30.8162 11.4874L30.0166 14.6344L29.6469 16.1133Z" fill="#1D1D1B"/>
<defs>
<linearGradient id="paint0_linear_481_1146" x1="0" y1="21.5017" x2="43.0033" y2="21.5017" gradientUnits="userSpaceOnUse">
<stop offset="2.13112e-08" stop-color="#BE264C"/>
<stop offset="1" stop-color="#BE264C"/>
</linearGradient>
<linearGradient id="paint1_linear_481_1146" x1="0" y1="21.5017" x2="43.0033" y2="21.5017" gradientUnits="userSpaceOnUse">
<stop offset="2.13112e-08" stop-color="#BE264C"/>
<stop offset="1" stop-color="#BE264C"/>
</linearGradient>
</defs>
</svg>
