<svg viewBox="0 0 91 91" fill="none" xmlns="http://www.w3.org/2000/svg">
<g filter="url(#filter0_d_708_1267)">
<path d="M45.2009 82.2465C67.7894 82.2465 86.101 63.9349 86.101 41.3464C86.101 18.7579 67.7894 0.446289 45.2009 0.446289C22.6124 0.446289 4.30078 18.7579 4.30078 41.3464C4.30078 63.9349 22.6124 82.2465 45.2009 82.2465Z" fill="#BE264C"/>
<path d="M65.1361 24.744C64.9543 24.2592 64.7726 24.138 64.5302 24.0775C63.8637 23.8351 62.8336 24.1986 62.8336 24.1986C62.8336 24.1986 24.5996 37.9532 22.4182 39.468C21.9335 39.771 21.8123 40.0134 21.6911 40.1951C21.3275 41.2858 22.4788 41.7705 22.4788 41.7705L32.3554 44.982C32.3554 44.982 32.719 45.0426 32.8402 44.982C35.0821 43.5883 55.3807 30.7427 56.532 30.3185C56.7137 30.2579 56.8349 30.3185 56.8349 30.4397C56.3502 32.0757 38.7177 47.7692 38.7177 47.7692C38.7177 47.7692 38.6571 47.8298 38.5965 47.951L37.6876 57.7064C37.6876 57.7064 37.324 60.6755 40.2931 57.7064C42.4138 55.5857 44.474 53.8285 45.4435 52.9802C48.8367 55.3433 52.4722 57.8882 54.0476 59.2819C54.8353 59.9484 55.5019 60.0696 56.0472 60.0696C57.562 60.009 57.9862 58.373 57.9862 58.373C57.9862 58.373 64.9543 30.3185 65.1967 26.5618C65.1967 26.1982 65.2573 25.9558 65.2573 25.7135C65.1967 25.2287 65.1967 24.8652 65.1361 24.744Z" fill="white"/>
</g>
<defs>
<filter id="filter0_d_708_1267" x="0.300781" y="0.446289" width="89.8003" height="89.8003" filterUnits="userSpaceOnUse" color-interpolation-filters="sRGB">
<feFlood flood-opacity="0" result="BackgroundImageFix"/>
<feColorMatrix in="SourceAlpha" type="matrix" values="0 0 0 0 0 0 0 0 0 0 0 0 0 0 0 0 0 0 127 0" result="hardAlpha"/>
<feOffset dy="4"/>
<feGaussianBlur stdDeviation="2"/>
<feComposite in2="hardAlpha" operator="out"/>
<feColorMatrix type="matrix" values="0 0 0 0 0 0 0 0 0 0 0 0 0 0 0 0 0 0 0.25 0"/>
<feBlend mode="normal" in2="BackgroundImageFix" result="effect1_dropShadow_708_1267"/>
<feBlend mode="normal" in="SourceGraphic" in2="effect1_dropShadow_708_1267" result="shape"/>
</filter>
</defs>
</svg>
