<svg viewBox="0 0 82 82" fill="none" xmlns="http://www.w3.org/2000/svg">
<path d="M81.8002 40.9001C81.8002 63.4682 63.4682 81.8002 40.9001 81.8002C18.332 81.8002 0 63.4682 0 40.9001C0 18.332 18.332 0 40.9001 0C63.4682 0 81.8002 18.332 81.8002 40.9001Z" fill="#BE264C"/>
<path d="M64.4891 29.7987C63.8317 29.2144 61.2755 29.2874 58.7192 29.2874C56.163 29.2874 53.5337 29.2874 52.9494 29.5796C52.3651 29.7987 51.1235 32.7931 49.5167 35.8606C47.6908 39.3664 45.4267 42.653 44.039 42.653C42.2131 42.653 42.6513 36.8831 42.7244 32.7201C42.7974 29.9447 42.3592 29.0683 41.921 28.7762C40.9715 28.1188 38.2692 27.4615 38.2692 27.4615C38.2692 27.4615 30.2352 26.8772 29.1397 30.3099C30.6734 30.529 33.3027 30.0178 32.2802 40.754C32.2072 41.2653 31.0386 45.7205 27.3138 39.7316C26.3643 38.2708 22.7856 29.2874 21.5439 29.2874C17.3809 29.1413 13.2909 28.9953 11.8302 29.7987C10.5155 30.529 13.6561 36.7371 18.9146 44.9901C23.2238 51.7094 27.752 57.0411 35.6399 58.3557C37.1006 58.5018 40.9715 58.6479 42.2131 58.0636C43.0165 57.6254 42.067 51.7825 44.8424 51.2712C46.084 51.0521 50.9044 57.3332 52.7303 58.0636C53.8258 58.5018 56.236 58.6478 58.7192 58.5748C61.4215 58.5018 64.416 58.7939 64.7082 56.968C65.3655 52.9511 56.6012 47.6925 56.309 45.2092C56.0899 43.4564 59.5226 40.0967 61.2755 37.6135C63.5396 34.619 65.8767 30.9672 64.4891 29.7987Z" fill="white"/>
</svg>
