<svg viewBox="0 0 83 82" fill="none" xmlns="http://www.w3.org/2000/svg">
<path d="M41.6472 81.8002C64.2357 81.8002 82.5473 63.4886 82.5473 40.9001C82.5473 18.3116 64.2357 0 41.6472 0C19.0587 0 0.74707 18.3116 0.74707 40.9001C0.74707 63.4886 19.0587 81.8002 41.6472 81.8002Z" fill="#BE264C"/>
<path fill-rule="evenodd" clip-rule="evenodd" d="M61.3394 21.7529C56.4314 16.8448 49.948 14.1788 42.9798 14.1182C28.6799 14.1182 17.0461 25.752 17.0461 40.0519C17.0461 44.5963 18.2579 49.0802 20.4999 53.0187L16.8037 66.4703L30.5583 62.8347C34.3756 64.8949 38.6171 65.9856 42.9798 65.9856C57.2797 65.9856 68.9135 54.3518 68.9135 40.0519C68.9135 33.1443 66.2474 26.6609 61.3394 21.7529ZM42.9798 61.6835C39.1019 61.6835 35.2845 60.6534 32.0125 58.6538L31.2248 58.1691L23.0448 60.2898L25.2261 52.3522L24.7414 51.5645C22.56 48.1107 21.4694 44.1722 21.4694 40.1125C21.4694 28.2363 31.1642 18.5414 43.0404 18.5414C48.7967 18.5414 54.1894 20.7834 58.3098 24.8431C62.3695 28.9028 64.6114 34.3561 64.6114 40.1125C64.5508 51.9886 54.856 61.6835 42.9798 61.6835ZM54.7954 45.5052C54.1289 45.2023 50.978 43.6268 50.3721 43.3845C49.7662 43.1421 49.342 43.0815 48.9179 43.6874C48.4937 44.354 47.2213 45.8082 46.8577 46.2323C46.4942 46.6565 46.1306 46.7171 45.4641 46.4141C44.7976 46.1111 42.7374 45.384 40.2531 43.2027C38.3141 41.5061 37.0417 39.3853 36.6176 38.7188C36.254 38.0523 36.557 37.7493 36.9205 37.3858C37.2235 37.0828 37.587 36.6587 37.89 36.2345C38.1929 35.871 38.3141 35.568 38.5565 35.1439C38.7989 34.7197 38.6777 34.3561 38.4959 33.9926C38.3141 33.6896 37.0417 30.4782 36.4964 29.2058C35.951 27.9333 35.4057 28.1151 35.0421 28.1151C34.6786 28.1151 34.2544 28.1151 33.7697 28.1151C33.3455 28.1151 32.6184 28.2969 32.0125 28.9028C31.4066 29.5693 29.7706 31.1447 29.7706 34.2956C29.7706 37.507 32.0731 40.5972 32.4366 41.0213C32.7396 41.4455 36.9811 47.9895 43.5251 50.8374C45.1005 51.5039 46.2518 51.928 47.2213 52.231C48.7967 52.7158 50.1903 52.6552 51.281 52.4734C52.5534 52.2916 55.0983 50.898 55.6437 49.3831C56.189 47.8683 56.189 46.5959 56.0072 46.2929C55.8861 45.99 55.4619 45.8082 54.7954 45.5052Z" fill="white"/>
</svg>
