<svg viewBox="0 0 82 83" fill="none" xmlns="http://www.w3.org/2000/svg">
<path d="M41.0144 82.2465C63.6029 82.2465 81.9145 63.9349 81.9145 41.3464C81.9145 18.7579 63.6029 0.446289 41.0144 0.446289C18.4259 0.446289 0.114258 18.7579 0.114258 41.3464C0.114258 63.9349 18.4259 82.2465 41.0144 82.2465Z" fill="#BE264C"/>
<path d="M67.1304 28.1989C66.5244 25.8358 64.6461 24.018 62.2829 23.3515C58.0415 22.2002 40.9543 22.2002 40.9543 22.2002C40.9543 22.2002 23.9277 22.2002 19.6256 23.3515C17.2625 23.9574 15.4447 25.8358 14.7782 28.1989C13.627 32.4404 13.627 41.3475 13.627 41.3475C13.627 41.3475 13.627 50.1941 14.7782 54.4961C15.3841 56.8593 17.2625 58.677 19.6256 59.3436C23.8671 60.4948 40.9543 60.4948 40.9543 60.4948C40.9543 60.4948 57.9809 60.4948 62.2829 59.3436C64.6461 58.7376 66.4638 56.8593 67.1304 54.4961C68.2816 50.2547 68.2816 41.3475 68.2816 41.3475C68.2816 41.3475 68.2816 32.4404 67.1304 28.1989ZM35.5615 49.5275V33.1675L49.7402 41.3475L35.5615 49.5275Z" fill="white"/>
</svg>
